<?xml version="1.0" encoding="UTF-8"?>
<!DOCTYPE svg PUBLIC "-//W3C//DTD SVG 1.1//EN" "http://www.w3.org/Graphics/SVG/1.1/DTD/svg11.dtd">
<svg xmlns="http://www.w3.org/2000/svg" version="1.1" width="64px" height="64px" style="shape-rendering:geometricPrecision; text-rendering:geometricPrecision; image-rendering:optimizeQuality; fill-rule:evenodd; clip-rule:evenodd" xmlns:xlink="http://www.w3.org/1999/xlink">
<g><path style="opacity:1" fill="#000000" d="M 5.5,5.5 C 22.8333,5.5 40.1667,5.5 57.5,5.5C 57.5,22.8333 57.5,40.1667 57.5,57.5C 40.1667,57.5 22.8333,57.5 5.5,57.5C 5.5,40.1667 5.5,22.8333 5.5,5.5 Z"/></g>
<g><path style="opacity:1" fill="#bf0000" d="M 7.5,7.5 C 23.5,7.5 39.5,7.5 55.5,7.5C 55.5,20.8333 55.5,34.1667 55.5,47.5C 39.5,47.5 23.5,47.5 7.5,47.5C 7.5,34.1667 7.5,20.8333 7.5,7.5 Z"/></g>
<g><path style="opacity:1" fill="#951f00" d="M 55.5,51.5 C 39.5,51.5 23.5,51.5 7.5,51.5C 15.1376,50.1689 23.1376,49.5022 31.5,49.5C 39.8624,49.5022 47.8624,50.1689 55.5,51.5 Z"/></g>
<g><path style="opacity:1" fill="#fe0000" d="M 7.5,51.5 C 23.5,51.5 39.5,51.5 55.5,51.5C 55.5,52.8333 55.5,54.1667 55.5,55.5C 39.5,55.5 23.5,55.5 7.5,55.5C 7.5,54.1667 7.5,52.8333 7.5,51.5 Z"/></g>
</svg>
