<?xml version="1.0" encoding="UTF-8"?>
<!DOCTYPE svg PUBLIC "-//W3C//DTD SVG 1.1//EN" "http://www.w3.org/Graphics/SVG/1.1/DTD/svg11.dtd">
<svg xmlns="http://www.w3.org/2000/svg" version="1.1" width="320px" height="320px" style="shape-rendering:geometricPrecision; text-rendering:geometricPrecision; image-rendering:optimizeQuality; fill-rule:evenodd; clip-rule:evenodd" xmlns:xlink="http://www.w3.org/1999/xlink">
<g><path style="opacity:1" fill="#000000" d="M 179.5,29.5 C 206.167,29.5 232.833,29.5 259.5,29.5C 259.5,36.1667 259.5,42.8333 259.5,49.5C 266.167,49.5 272.833,49.5 279.5,49.5C 279.5,56.1667 279.5,62.8333 279.5,69.5C 286.167,69.5 292.833,69.5 299.5,69.5C 299.5,96.1667 299.5,122.833 299.5,149.5C 292.833,149.5 286.167,149.5 279.5,149.5C 279.5,156.167 279.5,162.833 279.5,169.5C 272.833,169.5 266.167,169.5 259.5,169.5C 259.5,176.167 259.5,182.833 259.5,189.5C 232.833,189.5 206.167,189.5 179.5,189.5C 179.5,196.167 179.5,202.833 179.5,209.5C 172.833,209.5 166.167,209.5 159.5,209.5C 159.5,216.167 159.5,222.833 159.5,229.5C 152.833,229.5 146.167,229.5 139.5,229.5C 139.5,236.167 139.5,242.833 139.5,249.5C 132.833,249.5 126.167,249.5 119.5,249.5C 119.5,256.167 119.5,262.833 119.5,269.5C 112.833,269.5 106.167,269.5 99.5,269.5C 99.5,276.167 99.5,282.833 99.5,289.5C 86.1667,289.5 72.8333,289.5 59.5,289.5C 59.5,282.833 59.5,276.167 59.5,269.5C 52.8333,269.5 46.1667,269.5 39.5,269.5C 39.5,262.833 39.5,256.167 39.5,249.5C 32.8333,249.5 26.1667,249.5 19.5,249.5C 19.5,236.167 19.5,222.833 19.5,209.5C 32.8333,209.5 46.1667,209.5 59.5,209.5C 59.5,216.167 59.5,222.833 59.5,229.5C 72.8333,229.5 86.1667,229.5 99.5,229.5C 99.5,222.833 99.5,216.167 99.5,209.5C 92.8333,209.5 86.1667,209.5 79.5,209.5C 79.5,202.833 79.5,196.167 79.5,189.5C 72.8333,189.5 66.1667,189.5 59.5,189.5C 59.5,176.167 59.5,162.833 59.5,149.5C 72.8333,149.5 86.1667,149.5 99.5,149.5C 99.5,156.167 99.5,162.833 99.5,169.5C 106.167,169.5 112.833,169.5 119.5,169.5C 119.5,176.167 119.5,182.833 119.5,189.5C 126.167,189.5 132.833,189.5 139.5,189.5C 139.5,182.833 139.5,176.167 139.5,169.5C 146.167,169.5 152.833,169.5 159.5,169.5C 159.5,162.833 159.5,156.167 159.5,149.5C 152.833,149.5 146.167,149.5 139.5,149.5C 139.5,122.833 139.5,96.1667 139.5,69.5C 146.167,69.5 152.833,69.5 159.5,69.5C 159.5,62.8333 159.5,56.1667 159.5,49.5C 166.167,49.5 172.833,49.5 179.5,49.5C 179.5,42.8333 179.5,36.1667 179.5,29.5 Z M 199.5,69.5 C 212.833,69.5 226.167,69.5 239.5,69.5C 239.5,76.1667 239.5,82.8333 239.5,89.5C 246.167,89.5 252.833,89.5 259.5,89.5C 259.5,102.833 259.5,116.167 259.5,129.5C 252.833,129.5 246.167,129.5 239.5,129.5C 239.5,136.167 239.5,142.833 239.5,149.5C 226.167,149.5 212.833,149.5 199.5,149.5C 199.5,142.833 199.5,136.167 199.5,129.5C 192.833,129.5 186.167,129.5 179.5,129.5C 179.5,116.167 179.5,102.833 179.5,89.5C 186.167,89.5 192.833,89.5 199.5,89.5C 199.5,82.8333 199.5,76.1667 199.5,69.5 Z"/></g>
<g><path style="opacity:1" fill="#fed700" d="M 184.5,34.5 C 207.833,34.5 231.167,34.5 254.5,34.5C 254.5,41.1667 254.5,47.8333 254.5,54.5C 261.167,54.5 267.833,54.5 274.5,54.5C 274.5,61.1667 274.5,67.8333 274.5,74.5C 281.167,74.5 287.833,74.5 294.5,74.5C 294.5,97.8333 294.5,121.167 294.5,144.5C 287.833,144.5 281.167,144.5 274.5,144.5C 274.5,151.167 274.5,157.833 274.5,164.5C 267.833,164.5 261.167,164.5 254.5,164.5C 254.5,171.167 254.5,177.833 254.5,184.5C 227.833,184.5 201.167,184.5 174.5,184.5C 174.5,191.167 174.5,197.833 174.5,204.5C 167.833,204.5 161.167,204.5 154.5,204.5C 154.5,211.167 154.5,217.833 154.5,224.5C 147.833,224.5 141.167,224.5 134.5,224.5C 134.5,231.167 134.5,237.833 134.5,244.5C 127.833,244.5 121.167,244.5 114.5,244.5C 114.5,251.167 114.5,257.833 114.5,264.5C 107.833,264.5 101.167,264.5 94.5,264.5C 94.5,271.167 94.5,277.833 94.5,284.5C 84.5,284.5 74.5,284.5 64.5,284.5C 64.5,277.833 64.5,271.167 64.5,264.5C 57.8333,264.5 51.1667,264.5 44.5,264.5C 44.5,257.833 44.5,251.167 44.5,244.5C 37.8333,244.5 31.1667,244.5 24.5,244.5C 24.5,234.5 24.5,224.5 24.5,214.5C 34.5,214.5 44.5,214.5 54.5,214.5C 54.5,221.167 54.5,227.833 54.5,234.5C 71.1667,234.5 87.8333,234.5 104.5,234.5C 104.5,224.5 104.5,214.5 104.5,204.5C 97.8333,204.5 91.1667,204.5 84.5,204.5C 84.5,197.833 84.5,191.167 84.5,184.5C 77.8333,184.5 71.1667,184.5 64.5,184.5C 64.5,174.5 64.5,164.5 64.5,154.5C 74.5,154.5 84.5,154.5 94.5,154.5C 94.5,161.167 94.5,167.833 94.5,174.5C 101.167,174.5 107.833,174.5 114.5,174.5C 114.5,181.167 114.5,187.833 114.5,194.5C 124.5,194.5 134.5,194.5 144.5,194.5C 144.5,187.833 144.5,181.167 144.5,174.5C 151.167,174.5 157.833,174.5 164.5,174.5C 164.5,164.5 164.5,154.5 164.5,144.5C 157.833,144.5 151.167,144.5 144.5,144.5C 144.5,121.167 144.5,97.8333 144.5,74.5C 151.167,74.5 157.833,74.5 164.5,74.5C 164.5,67.8333 164.5,61.1667 164.5,54.5C 171.167,54.5 177.833,54.5 184.5,54.5C 184.5,47.8333 184.5,41.1667 184.5,34.5 Z M 199.5,69.5 C 199.5,76.1667 199.5,82.8333 199.5,89.5C 192.833,89.5 186.167,89.5 179.5,89.5C 179.5,102.833 179.5,116.167 179.5,129.5C 186.167,129.5 192.833,129.5 199.5,129.5C 199.5,136.167 199.5,142.833 199.5,149.5C 212.833,149.5 226.167,149.5 239.5,149.5C 239.5,142.833 239.5,136.167 239.5,129.5C 246.167,129.5 252.833,129.5 259.5,129.5C 259.5,116.167 259.5,102.833 259.5,89.5C 252.833,89.5 246.167,89.5 239.5,89.5C 239.5,82.8333 239.5,76.1667 239.5,69.5C 226.167,69.5 212.833,69.5 199.5,69.5 Z"/></g>
<g><path style="opacity:1" fill="#000000" d="M 194.5,64.5 C 211.167,64.5 227.833,64.5 244.5,64.5C 244.5,71.1667 244.5,77.8333 244.5,84.5C 251.167,84.5 257.833,84.5 264.5,84.5C 264.5,101.167 264.5,117.833 264.5,134.5C 257.833,134.5 251.167,134.5 244.5,134.5C 244.5,141.167 244.5,147.833 244.5,154.5C 227.833,154.5 211.167,154.5 194.5,154.5C 194.5,147.833 194.5,141.167 194.5,134.5C 187.833,134.5 181.167,134.5 174.5,134.5C 174.5,117.833 174.5,101.167 174.5,84.5C 181.167,84.5 187.833,84.5 194.5,84.5C 194.5,77.8333 194.5,71.1667 194.5,64.5 Z M 199.5,69.5 C 199.5,76.1667 199.5,82.8333 199.5,89.5C 192.833,89.5 186.167,89.5 179.5,89.5C 179.5,102.833 179.5,116.167 179.5,129.5C 186.167,129.5 192.833,129.5 199.5,129.5C 199.5,136.167 199.5,142.833 199.5,149.5C 212.833,149.5 226.167,149.5 239.5,149.5C 239.5,142.833 239.5,136.167 239.5,129.5C 246.167,129.5 252.833,129.5 259.5,129.5C 259.5,116.167 259.5,102.833 259.5,89.5C 252.833,89.5 246.167,89.5 239.5,89.5C 239.5,82.8333 239.5,76.1667 239.5,69.5C 226.167,69.5 212.833,69.5 199.5,69.5 Z"/></g>
</svg>
