<?xml version="1.0" encoding="UTF-8" standalone="no"?>
<!-- Uploaded to: SVG Repo, www.svgrepo.com, Generator: SVG Repo Mixer Tools -->

<svg
   width="800px"
   height="800px"
   viewBox="0 0 24 24"
   fill="none"
   version="1.1"
   id="svg2"
   sodipodi:docname="keyhole-square-color.svg"
   inkscape:version="1.3.2 (091e20e, 2023-11-25, custom)"
   xmlns:inkscape="http://www.inkscape.org/namespaces/inkscape"
   xmlns:sodipodi="http://sodipodi.sourceforge.net/DTD/sodipodi-0.dtd"
   xmlns="http://www.w3.org/2000/svg"
   xmlns:svg="http://www.w3.org/2000/svg">
  <defs
     id="defs2" />
  <sodipodi:namedview
     id="namedview2"
     pagecolor="#ffffff"
     bordercolor="#000000"
     borderopacity="0.25"
     inkscape:showpageshadow="2"
     inkscape:pageopacity="0.0"
     inkscape:pagecheckerboard="0"
     inkscape:deskcolor="#d1d1d1"
     inkscape:zoom="0.63625"
     inkscape:cx="399.21415"
     inkscape:cy="400"
     inkscape:window-width="1366"
     inkscape:window-height="705"
     inkscape:window-x="-8"
     inkscape:window-y="-8"
     inkscape:window-maximized="1"
     inkscape:current-layer="svg2" />
  <path
     d="M16.2 21C17.8802 21 18.7202 21 19.362 20.673C19.9265 20.3854 20.3854 19.9265 20.673 19.362C21 18.7202 21 17.8802 21 16.2V7.8C21 6.11984 21 5.27977 20.673 4.63803C20.3854 4.07354 19.9265 3.6146 19.362 3.32698C18.7202 3 17.8802 3 16.2 3L7.8 3C6.11984 3 5.27976 3 4.63803 3.32698C4.07354 3.6146 3.6146 4.07354 3.32698 4.63803C3 5.27976 3 6.11984 3 7.8L3 16.2C3 17.8802 3 18.7202 3.32698 19.362C3.6146 19.9265 4.07354 20.3854 4.63803 20.673C5.27976 21 6.11984 21 7.8 21H16.2Z"
     stroke="#000000"
     stroke-width="2"
     stroke-linecap="round"
     stroke-linejoin="round"
     id="path1" />
  <path
     d="M13.7316 13.1947C13.661 12.9831 13.6257 12.8772 13.6276 12.7907C13.6295 12.6996 13.6417 12.6519 13.6836 12.5711C13.7235 12.4942 13.83 12.395 14.0432 12.1967C14.6318 11.6489 15 10.8675 15 10C15 8.34315 13.6569 7 12 7C10.3431 7 9 8.34315 9 10C9 10.8675 9.36818 11.649 9.95681 12.1967C10.17 12.395 10.2765 12.4942 10.3164 12.5711C10.3583 12.6519 10.3705 12.6996 10.3724 12.7907C10.3743 12.8772 10.339 12.9831 10.2684 13.1947L9.35099 15.947C9.23249 16.3025 9.17324 16.4803 9.20877 16.6218C9.23987 16.7456 9.31718 16.8529 9.42484 16.9216C9.54783 17 9.7352 17 10.1099 17H13.8901C14.2648 17 14.4522 17 14.5752 16.9216C14.6828 16.8529 14.7601 16.7456 14.7912 16.6218C14.8268 16.4803 14.7675 16.3025 14.649 15.947L13.7316 13.1947Z"
     stroke="#000000"
     stroke-width="2"
     stroke-linecap="round"
     stroke-linejoin="round"
     id="path2" />
  <path
     style="fill:#ffd700;stroke-width:0"
     d="M 187.89148,730.6722 C 145.23954,726.4764 111.28542,706.20542 89.11975,671.70442 80.280027,657.94534 74.853724,644.17653 71.236102,626.32613 68.545585,613.05033 68.369352,599.13694 68.369352,400 c 0,-199.13695 0.176233,-213.05033 2.86675,-226.32613 3.8262,-18.87959 9.159579,-31.95086 19.34092,-47.40156 14.085418,-21.37534 37.547978,-40.334256 60.546768,-48.924796 4.88625,-1.825121 15.14166,-4.591848 22.78978,-6.148282 12.98601,-2.642723 27.93852,-2.82988 226.08643,-2.82988 198.37193,0 213.08857,0.184699 226.12985,2.838018 19.49286,3.965921 32.4202,9.188461 47.37531,19.139247 30.24505,20.124353 49.70471,50.425143 56.10094,87.355173 2.95046,17.03509 2.95046,427.56133 0,444.59643 -9.59018,55.37101 -49.40805,96.06004 -104.85168,107.14568 -11.47338,2.29403 -414.51007,3.42724 -436.86294,1.2283 z M 615.0692,664.98658 c 18.60579,-3.67472 35.81559,-16.48965 44.10003,-32.83821 8.0131,-15.81311 8.02134,-16.05141 8.02134,-232.14837 0,-216.09695 -0.008,-216.33527 -8.02134,-232.14837 -5.14973,-10.16248 -16.85838,-21.87114 -27.02086,-27.02086 -15.81311,-8.01311 -16.05141,-8.02134 -232.14837,-8.02134 -216.09695,0 -216.33527,0.008 -232.14837,8.02134 -10.16248,5.14972 -21.87114,16.85838 -27.02086,27.02086 -8.01311,15.8131 -8.02134,16.05142 -8.02134,232.14837 0,216.09696 0.008,216.33526 8.02134,232.14837 7.49062,14.78202 24.71775,28.57045 39.91579,31.94821 13.24699,2.94414 52.92236,3.47079 233.39882,3.09811 136.97086,-0.28285 194.36968,-0.91365 200.92382,-2.20811 z"
     id="path3"
     transform="scale(0.03)" />
  <path
     style="fill:#ffd700;stroke-width:0"
     d="m 309.30033,596.6493 c -20.43675,-5.58899 -34.95505,-25.11541 -34.68137,-46.6448 0.11105,-8.73624 2.88199,-18.61451 18.15435,-64.71942 l 18.02329,-54.40958 -5.45304,-5.22164 c -13.78091,-13.19613 -28.7829,-40.18378 -34.35538,-61.80317 -2.05762,-7.98291 -2.81114,-16.60878 -2.74597,-31.43419 0.0768,-17.47857 0.70231,-22.47705 4.32679,-34.5776 13.76652,-45.96031 48.58502,-80.17385 94.45606,-92.81491 12.9606,-3.57165 40.94277,-4.74431 54.81252,-2.29704 50.49298,8.9093 90.64577,45.08154 105.57845,95.11195 5.49028,18.39459 6.21072,46.87067 1.65022,65.22593 -5.5005,22.13861 -20.32333,49.10031 -34.40981,62.58903 l -5.45305,5.22164 18.0233,54.40958 c 21.24072,64.1225 21.87832,68.25342 13.24229,85.79569 -5.44121,11.05268 -13.8286,19.25507 -24.7159,24.17077 -5.63022,2.54206 -13.67266,2.8115 -92.60966,3.10253 -66.43995,0.24496 -88.15624,-0.14954 -93.84309,-1.70477 z m 144.92364,-63.47641 c 0,-0.66454 -7.11804,-22.41306 -15.81784,-48.33006 -22.24343,-66.26377 -22.05556,-70.76689 4.1038,-98.36993 9.4573,-9.97924 15.16309,-17.59669 18.57595,-24.79963 4.63344,-9.77902 4.92591,-11.47134 4.92591,-28.50396 0,-17.44238 -0.19801,-18.51073 -5.38906,-29.07662 -13.23423,-26.93698 -42.24696,-42.13001 -71.02734,-37.19472 -22.32624,3.82853 -40.36613,17.20467 -50.23256,37.24624 -5.17561,10.51315 -5.37462,11.58788 -5.37462,29.0251 0,17.03262 0.29246,18.72494 4.92591,28.50396 3.41286,7.20294 9.11865,14.82039 18.57596,24.79963 26.14855,27.59165 26.30391,31.1836 4.22489,97.68172 -8.76642,26.40291 -15.93894,48.50507 -15.93894,49.11592 0,0.61083 24.40079,1.1106 54.22397,1.1106 29.82318,0 54.22397,-0.54372 54.22397,-1.20825 z"
     id="path4"
     transform="scale(0.03)" />
</svg>
