<?xml version="1.0" encoding="UTF-8" standalone="no"?>
<!-- Uploaded to: SVG Repo, www.svgrepo.com, Generator: SVG Repo Mixer Tools -->

<svg
   width="800px"
   height="800px"
   viewBox="0 0 24 24"
   fill="none"
   version="1.1"
   id="svg2"
   sodipodi:docname="keyhole-circle-color.svg"
   inkscape:version="1.3.2 (091e20e, 2023-11-25, custom)"
   xmlns:inkscape="http://www.inkscape.org/namespaces/inkscape"
   xmlns:sodipodi="http://sodipodi.sourceforge.net/DTD/sodipodi-0.dtd"
   xmlns="http://www.w3.org/2000/svg"
   xmlns:svg="http://www.w3.org/2000/svg">
  <defs
     id="defs2" />
  <sodipodi:namedview
     id="namedview2"
     pagecolor="#ffffff"
     bordercolor="#000000"
     borderopacity="0.25"
     inkscape:showpageshadow="2"
     inkscape:pageopacity="0.0"
     inkscape:pagecheckerboard="0"
     inkscape:deskcolor="#d1d1d1"
     inkscape:zoom="0.63625"
     inkscape:cx="399.21415"
     inkscape:cy="400"
     inkscape:window-width="1366"
     inkscape:window-height="705"
     inkscape:window-x="-8"
     inkscape:window-y="-8"
     inkscape:window-maximized="1"
     inkscape:current-layer="svg2" />
  <path
     d="M12 22C17.5228 22 22 17.5228 22 12C22 6.47715 17.5228 2 12 2C6.47715 2 2 6.47715 2 12C2 17.5228 6.47715 22 12 22Z"
     stroke="#000000"
     stroke-width="2"
     stroke-linecap="round"
     stroke-linejoin="round"
     id="path1" />
  <path
     d="M13.7316 13.1947C13.661 12.9831 13.6257 12.8772 13.6276 12.7907C13.6295 12.6996 13.6417 12.6519 13.6836 12.5711C13.7235 12.4942 13.83 12.395 14.0432 12.1967C14.6318 11.649 15 10.8675 15 10C15 8.34315 13.6569 7 12 7C10.3431 7 9 8.34315 9 10C9 10.8675 9.36818 11.649 9.95681 12.1967C10.17 12.395 10.2765 12.4942 10.3164 12.5711C10.3583 12.6519 10.3705 12.6996 10.3724 12.7907C10.3743 12.8772 10.339 12.9831 10.2684 13.1947L9.35099 15.947C9.23249 16.3025 9.17324 16.4803 9.20877 16.6218C9.23987 16.7456 9.31718 16.8529 9.42484 16.9216C9.54783 17 9.7352 17 10.1099 17H13.8901C14.2648 17 14.4522 17 14.5752 16.9216C14.6828 16.8529 14.7601 16.7456 14.7912 16.6218C14.8268 16.4803 14.7675 16.3025 14.649 15.947L13.7316 13.1947Z"
     stroke="#000000"
     stroke-width="2"
     stroke-linecap="round"
     stroke-linejoin="round"
     id="path2" />
  <path
     style="fill:#ffd700;stroke-width:0"
     d="M 359.13556,763.59192 C 265.54881,753.02772 176.32557,703.94048 115.34857,629.46955 90.233708,598.79689 66.644747,555.56418 53.514064,516.14227 27.986469,439.50142 27.986469,360.49858 53.514064,283.85773 98.758197,148.02243 220.66397,50.858574 364.48512,36.001152 c 36.85182,-3.806973 89.30081,0.118829 125.196,9.37091 49.20829,12.683567 102.1569,39.185617 139.78843,69.967458 75.49845,61.75623 123.87758,150.55081 134.29545,246.48459 2.1255,19.57281 2.1255,56.77897 0,76.35178 -10.41055,95.86626 -58.85014,184.77182 -134.29545,246.48459 -51.59549,42.20409 -122.85783,71.67277 -191.29366,79.10452 -17.92448,1.94651 -61.10079,1.85196 -79.04033,-0.17308 z m 68.59576,-64.22196 C 487.48629,693.45064 541.94466,671.56819 587.61935,635.1238 718.50488,530.68868 738.54372,338.55046 632.1015,208.61606 531.12633,85.355326 348.14744,63.290911 220.11352,158.93671 70.997553,270.33154 58.023813,489.45987 192.94287,617.85286 c 63.14001,60.08591 149.26742,89.98881 234.78845,81.5171 z"
     id="path3"
     transform="scale(0.03)" />
  <path
     style="fill:#ffd700;stroke-width:0"
     d="m 309.30033,596.6493 c -20.43675,-5.58899 -34.95505,-25.11541 -34.68137,-46.6448 0.11105,-8.73624 2.88199,-18.61451 18.15435,-64.71942 l 18.02329,-54.40958 -5.45304,-5.22164 c -13.78091,-13.19613 -28.7829,-40.18378 -34.35538,-61.80317 -2.05762,-7.98291 -2.81114,-16.60878 -2.74597,-31.43419 0.0768,-17.47857 0.70231,-22.47705 4.32679,-34.5776 13.76652,-45.96031 48.58502,-80.17385 94.45606,-92.81491 12.9606,-3.57165 40.94277,-4.74431 54.81252,-2.29704 50.49298,8.9093 90.64577,45.08154 105.57845,95.11195 5.49028,18.39459 6.21072,46.87067 1.65022,65.22593 -5.5005,22.13861 -20.32333,49.10031 -34.40981,62.58903 l -5.45305,5.22164 18.0233,54.40958 c 21.24072,64.1225 21.87832,68.25342 13.24229,85.79569 -5.44121,11.05268 -13.8286,19.25507 -24.7159,24.17077 -5.63022,2.54206 -13.67266,2.8115 -92.60966,3.10253 -66.43995,0.24496 -88.15624,-0.14954 -93.84309,-1.70477 z m 144.92364,-63.47641 c 0,-0.66454 -7.11804,-22.41306 -15.81784,-48.33006 -22.24343,-66.26377 -22.05556,-70.76689 4.1038,-98.36993 9.4573,-9.97924 15.16309,-17.59669 18.57595,-24.79963 4.63344,-9.77902 4.92591,-11.47134 4.92591,-28.50396 0,-17.44238 -0.19801,-18.51073 -5.38906,-29.07662 -13.23423,-26.93698 -42.24696,-42.13001 -71.02734,-37.19472 -22.32624,3.82853 -40.36613,17.20467 -50.23256,37.24624 -5.17561,10.51315 -5.37462,11.58788 -5.37462,29.0251 0,17.03262 0.29246,18.72494 4.92591,28.50396 3.41286,7.20294 9.11865,14.82039 18.57596,24.79963 26.14855,27.59165 26.30391,31.1836 4.22489,97.68172 -8.76642,26.40291 -15.93894,48.50507 -15.93894,49.11592 0,0.61083 24.40079,1.1106 54.22397,1.1106 29.82318,0 54.22397,-0.54372 54.22397,-1.20825 z"
     id="path4"
     transform="scale(0.03)" />
</svg>
