<?xml version="1.0" encoding="UTF-8" standalone="no"?>
<!-- Uploaded to: SVG Repo, www.svgrepo.com, Generator: SVG Repo Mixer Tools -->

<svg
   fill="#000000"
   version="1.1"
   id="Capa_1"
   width="800px"
   height="800px"
   viewBox="0 0 28.457 28.456"
   xml:space="preserve"
   sodipodi:docname="keyhole-color.svg"
   inkscape:version="1.3.2 (091e20e, 2023-11-25, custom)"
   xmlns:inkscape="http://www.inkscape.org/namespaces/inkscape"
   xmlns:sodipodi="http://sodipodi.sourceforge.net/DTD/sodipodi-0.dtd"
   xmlns="http://www.w3.org/2000/svg"
   xmlns:svg="http://www.w3.org/2000/svg"><defs
   id="defs1" /><sodipodi:namedview
   id="namedview1"
   pagecolor="#ffffff"
   bordercolor="#000000"
   borderopacity="0.25"
   inkscape:showpageshadow="2"
   inkscape:pageopacity="0.0"
   inkscape:pagecheckerboard="0"
   inkscape:deskcolor="#d1d1d1"
   inkscape:zoom="1.2725"
   inkscape:cx="317.48527"
   inkscape:cy="326.52259"
   inkscape:window-width="1366"
   inkscape:window-height="705"
   inkscape:window-x="-8"
   inkscape:window-y="-8"
   inkscape:window-maximized="1"
   inkscape:current-layer="Capa_1" />
<g
   id="g1">
	<path
   d="M21.015,6.986c0,2.627-1.449,4.916-3.593,6.108c3.991,15.362,3.991,15.362,3.991,15.362s-13.619,0-14.144,0   c4.145-14.989,0,0,4.145-14.989C8.853,12.433,7.042,9.92,7.042,6.986C7.042,3.127,10.169,0,14.028,0   C17.888,0,21.015,3.127,21.015,6.986z"
   id="path1" />
</g>
<path
   style="fill:#ffff00;stroke-width:13.2951"
   d="m 205.89391,798.89589 c 0,-0.97639 114.34053,-415.3784 115.69972,-419.32811 0.29747,-0.86444 -4.21837,-3.69127 -10.03522,-6.28185 C 275.39344,357.17955 238.48846,321.19736 219.66834,283.69352 186.93279,218.45965 193.90922,138.43613 237.40087,80.291379 248.9213,64.88952 269.55173,45.067712 284.47937,35.058155 318.58234,12.1908 353.72769,1.4570662 394.49902,1.4570662 c 53.79041,0 99.13845,18.8788068 137.72388,57.3357228 29.69768,29.598776 47.32244,63.417921 54.81204,105.175761 4.03807,22.51403 2.67277,57.07662 -3.14007,79.49099 -12.57107,48.4742 -40.97745,88.60283 -82.08019,115.95165 -9.49014,6.31452 -12.89448,9.4351 -12.32442,11.2971 1.99042,6.50141 110.90267,426.77661 110.90267,427.95593 0,0.73468 -88.76228,1.33578 -197.24951,1.33578 -108.48723,0 -197.24951,-0.49685 -197.24951,-1.10411 z"
   id="path2"
   transform="matrix(0.03557125,0,0,0.03557125,0,-5e-4)" /><path
   style="fill:#ffd700;stroke-width:0;stroke:none;stroke-dasharray:none;stroke-opacity:1;fill-opacity:1"
   d="m 295.08841,798.80802 c -48.19254,-0.22336 -87.62279,-0.86608 -87.62279,-1.42826 0,-1.2467 28.8157,-106.15262 77.9255,-283.69418 20.2451,-73.19002 36.80927,-133.7457 36.80927,-134.56816 0,-0.82246 -6.54224,-4.82986 -14.53831,-8.90532 -52.18268,-26.5966 -91.45733,-77.63401 -103.46728,-134.45571 -4.88116,-23.09387 -4.88116,-55.4916 0,-78.58547 C 219.43738,85.05489 275.20863,26.306534 345.30879,8.5241694 386.95197,-2.03949 433.51997,1.4225564 471.56776,17.910752 c 28.75571,12.461429 63.03004,40.607197 81.54199,66.961547 15.68783,22.333811 27.39401,49.798831 32.34139,75.879291 3.11125,16.40118 3.07846,51.65911 -0.0648,69.68398 -8.6492,49.59814 -35.35912,91.70213 -78.74243,124.125 -9.81328,7.33403 -17.84233,14.12273 -17.84233,15.086 0,0.96325 14.44989,57.34204 32.11085,125.28619 51.89646,199.65267 78.19373,302.16643 77.64051,302.66328 -0.88766,0.7972 -211.48602,1.63829 -303.46452,1.21198 z"
   id="path3"
   transform="matrix(0.03557125,0,0,0.03557125,0,-5e-4)" /></svg>
